<svg width="16" height="17" viewBox="0 0 16 17" fill="none" xmlns="http://www.w3.org/2000/svg">
<path d="M8.66699 4.64323C8.66699 4.27504 8.36851 3.97656 8.00033 3.97656C7.63213 3.97656 7.33366 4.27504 7.33366 4.64323V8.3099C7.33366 8.48671 7.4039 8.65628 7.52892 8.7813L9.52892 10.7813C9.78927 11.0416 10.2114 11.0416 10.4717 10.7813C10.7321 10.521 10.7321 10.0988 10.4717 9.83849L8.66699 8.03375V4.64323Z" fill="#787A80"/>
<path fill-rule="evenodd" clip-rule="evenodd" d="M8.00033 0.976562C3.95024 0.976562 0.666992 4.25981 0.666992 8.3099C0.666992 12.36 3.95024 15.6432 8.00033 15.6432C12.0504 15.6432 15.3337 12.36 15.3337 8.3099C15.3337 4.25981 12.0504 0.976562 8.00033 0.976562ZM2.00033 8.3099C2.00033 4.99619 4.68662 2.3099 8.00033 2.3099C11.314 2.3099 14.0003 4.99619 14.0003 8.3099C14.0003 11.6236 11.314 14.3099 8.00033 14.3099C4.68662 14.3099 2.00033 11.6236 2.00033 8.3099Z" fill="#787A80"/>
</svg>
