<svg width="16" height="17" viewBox="0 0 16 17" fill="none" xmlns="http://www.w3.org/2000/svg">
<path fill-rule="evenodd" clip-rule="evenodd" d="M5.33301 9.6901C5.33301 9.32191 5.63148 9.02344 5.99967 9.02344H9.99967C10.3679 9.02344 10.6663 9.32191 10.6663 9.6901C10.6663 10.0583 10.3679 10.3568 9.99967 10.3568H5.99967C5.63148 10.3568 5.33301 10.0583 5.33301 9.6901Z" fill="#424551"/>
<path fill-rule="evenodd" clip-rule="evenodd" d="M5.33301 12.1901C5.33301 11.8219 5.63148 11.5234 5.99967 11.5234H7.99967C8.36786 11.5234 8.66634 11.8219 8.66634 12.1901C8.66634 12.5583 8.36786 12.8568 7.99967 12.8568H5.99967C5.63148 12.8568 5.33301 12.5583 5.33301 12.1901Z" fill="#424551"/>
<path fill-rule="evenodd" clip-rule="evenodd" d="M6.02829 1.7187C6.15331 1.59368 6.32288 1.52344 6.49969 1.52344H10.9997C12.4725 1.52344 13.6664 2.71734 13.6664 4.1901L13.6664 13.1901C13.6664 14.6629 12.4725 15.8568 10.9997 15.8568H4.99967C3.52691 15.8568 2.333 14.6629 2.33301 13.1901L2.33302 5.6901C2.33302 5.51329 2.40326 5.34372 2.52829 5.2187L6.02829 1.7187ZM6.333 3.2996V5.52344H4.10917L6.333 3.2996ZM3.66636 6.85677L3.66634 13.1901C3.66634 13.9265 4.26329 14.5234 4.99967 14.5234H10.9997C11.7361 14.5234 12.333 13.9265 12.333 13.1901L12.333 4.1901C12.333 3.45372 11.7361 2.85677 10.9997 2.85677H7.66634V6.1901C7.66634 6.55829 7.36786 6.85677 6.99967 6.85677H3.66636Z" fill="#424551"/>
</svg>
