<svg width="20" height="21" viewBox="0 0 20 21" fill="none" xmlns="http://www.w3.org/2000/svg">
<path d="M18.3295 18.6432L18.3337 18.6425V12.53C18.3337 9.53976 17.6899 7.23628 14.1941 7.23628C12.5135 7.23628 11.3857 8.15851 10.9253 9.03281H10.8767V7.51545H7.56212V18.6425H11.0135V13.1328C11.0135 11.6821 11.2885 10.2793 13.085 10.2793C14.8552 10.2793 14.8816 11.9349 14.8816 13.2259V18.6432H18.3295Z" fill="#787A80"/>
<path d="M1.94199 7.51614H5.39754V18.6432H1.94199V7.51614Z" fill="#787A80"/>
<path d="M3.66838 1.97656C2.56352 1.97656 1.66699 2.87309 1.66699 3.97795C1.66699 5.08281 2.56352 5.99809 3.66838 5.99809C4.77324 5.99809 5.66977 5.08281 5.66977 3.97795C5.66908 2.87309 4.77255 1.97656 3.66838 1.97656Z" fill="#787A80"/>
</svg>
