<svg width="16" height="15" viewBox="0 0 16 15" fill="none" xmlns="http://www.w3.org/2000/svg">
<path fill-rule="evenodd" clip-rule="evenodd" d="M4.99967 0.333008C5.36786 0.333008 5.66634 0.631485 5.66634 0.999674V1.33302L10.333 1.33303V0.999674C10.333 0.631485 10.6315 0.333008 10.9997 0.333008C11.3679 0.333008 11.6663 0.631484 11.6663 0.999674V1.33303L12.4997 1.33303C13.9724 1.33303 15.1663 2.52694 15.1663 3.9997V11.9997C15.1663 13.4724 13.9724 14.6663 12.4997 14.6663L3.49967 14.6663C2.02691 14.6663 0.833008 13.4724 0.833008 11.9997L0.833008 5.4998L0.833008 3.99968C0.833008 2.52692 2.02692 1.33301 3.49968 1.33301L4.33301 1.33301V0.999674C4.33301 0.631485 4.63148 0.333008 4.99967 0.333008ZM4.33301 2.66635L3.49968 2.66634C2.7633 2.66634 2.16634 3.2633 2.16634 3.99968V4.83301H13.833V3.9997C13.833 3.26332 13.2361 2.66636 12.4997 2.66636L11.6663 2.66636V2.99967C11.6663 3.36786 11.3679 3.66634 10.9997 3.66634C10.6315 3.66634 10.333 3.36786 10.333 2.99967V2.66636L5.66634 2.66635V2.99967C5.66634 3.36786 5.36786 3.66634 4.99967 3.66634C4.63148 3.66634 4.33301 3.36786 4.33301 2.99967V2.66635ZM13.833 6.16634H2.16634L2.16634 11.9997C2.16634 12.7361 2.76329 13.333 3.49967 13.333L12.4997 13.333C13.2361 13.333 13.833 12.7361 13.833 11.9997V6.16634Z" fill="#787A80"/>
</svg>
