<svg width="20" height="21" viewBox="0 0 20 21" fill="none" xmlns="http://www.w3.org/2000/svg">
<path d="M14.6354 1.14639L12.321 1.14258C9.72086 1.14258 8.04054 2.91349 8.04054 5.65444V7.7347H5.71352C5.51244 7.7347 5.34961 7.90216 5.34961 8.10872V11.1228C5.34961 11.3294 5.51263 11.4966 5.71352 11.4966H8.04054V19.1021C8.04054 19.3086 8.20337 19.4759 8.40445 19.4759H11.4405C11.6416 19.4759 11.8045 19.3085 11.8045 19.1021V11.4966H14.5253C14.7264 11.4966 14.8892 11.3294 14.8892 11.1228L14.8903 8.10872C14.8903 8.00954 14.8519 7.91456 14.7837 7.84437C14.7156 7.77418 14.6227 7.7347 14.5262 7.7347H11.8045V5.97123C11.8045 5.12364 12.0011 4.69336 13.0759 4.69336L14.635 4.69279C14.8359 4.69279 14.9987 4.52533 14.9987 4.31896V1.52022C14.9987 1.31404 14.8361 1.14677 14.6354 1.14639Z" fill="#787A80"/>
</svg>
