<svg width="20" height="21" viewBox="0 0 20 21" fill="none" xmlns="http://www.w3.org/2000/svg">
<path d="M18.75 5.12017C18.1059 5.39345 17.4148 5.57879 16.6887 5.66153C17.4301 5.2364 17.9976 4.56209 18.2666 3.76106C17.5711 4.15476 16.8035 4.44063 15.9855 4.5956C15.3305 3.92652 14.3988 3.50977 13.3653 3.50977C11.3827 3.50977 9.77523 5.04899 9.77523 6.94631C9.77523 7.2154 9.80694 7.47822 9.86819 7.72954C6.88501 7.58607 4.23973 6.21754 2.46928 4.138C2.1598 4.6448 1.98374 5.23533 1.98374 5.8657C1.98374 7.05835 2.618 8.11067 3.58033 8.72634C2.992 8.7075 2.43866 8.55253 1.95423 8.29494V8.33787C1.95423 10.0027 3.19213 11.3922 4.83353 11.7085C4.5328 11.7859 4.21568 11.8289 3.88761 11.8289C3.6558 11.8289 3.43161 11.8069 3.2118 11.765C3.66889 13.1314 4.99429 14.1251 6.56463 14.1524C5.33657 15.0738 3.7881 15.6214 2.10624 15.6214C1.81646 15.6214 1.53103 15.6047 1.25 15.5743C2.83893 16.5513 4.7253 17.1209 6.75273 17.1209C13.3566 17.1209 16.9665 11.8833 16.9665 7.34107L16.9544 6.89607C17.6597 6.41437 18.2699 5.80916 18.75 5.12017Z" fill="#787A80"/>
</svg>
